<?xml version="1.0" encoding="UTF-8" standalone="no"?>
<svg xmlns="http://www.w3.org/2000/svg" viewBox="0 0 800 600">
  <!-- Orange sun with stripes -->
  <circle cx="400" cy="170" r="170" fill="#FFA500"/>
  
  <!-- White stripes across the sun -->
  <line x1="230" y1="130" x2="570" y2="130" stroke="white" stroke-width="8"/>
  <line x1="230" y1="170" x2="570" y2="170" stroke="white" stroke-width="8"/>
  <line x1="230" y1="210" x2="570" y2="210" stroke="white" stroke-width="8"/>
  <line x1="230" y1="250" x2="570" y2="250" stroke="white" stroke-width="8"/>
  
  <!-- Grass silhouette -->
  <path d="M230 300 C250 295 270 305 290 295 C310 285 330 295 350 290 C370 285 390 300 410 290 
           C430 285 450 295 470 290 C490 285 510 295 530 290 C550 285 570 300 570 300 
           L570 350 L230 350 Z" fill="black"/>
  
  <!-- Animals silhouettes -->
  <!-- Zebra -->
  <path d="M270 300 C270 280 260 270 250 280 C240 290 250 310 260 310 C270 310 280 300 270 290" fill="black"/>
  
  <!-- Giraffe -->
  <path d="M350 240 L350 300 C350 310 360 315 370 310 C380 305 380 290 380 290 L380 270 L370 250 L370 240 L380 230 L380 270" fill="black"/>
  
  <!-- Gazelle -->
  <path d="M320 280 C320 270 310 260 305 270 C300 280 305 300 315 300 C325 300 325 290 320 280 L315 270 L315 260 L320 250" fill="black"/>
  
  <!-- Buffalo -->
  <path d="M450 280 C460 270 450 260 440 270 C430 280 440 300 450 300 C460 300 470 290 460 280 
          M430 270 L425 260 L430 270 M460 270 L465 260 L460 270" fill="black"/>
  
  <!-- SNOWYTOP Text -->
  <text x="100" y="450" font-family="Arial, sans-serif" font-size="100" font-weight="bold" fill="black">SNOWYTOP</text>
  
  <!-- SAFARIS Text -->
  <text x="550" y="450" font-family="Arial, sans-serif" font-size="80" font-weight="bold" fill="black">SAFARIS</text>
  
  <!-- Tagline -->
  <text x="150" y="520" font-family="Arial, sans-serif" font-size="30" font-weight="bold" fill="black">A NEW SKY A NEW LIFE</text>
  
  <!-- Horizontal lines under tagline -->
  <line x1="100" y1="485" x2="500" y2="485" stroke="black" stroke-width="3"/>
  <line x1="100" y1="495" x2="500" y2="495" stroke="black" stroke-width="3"/>
  <line x1="100" y1="505" x2="500" y2="505" stroke="black" stroke-width="3"/>
</svg>