<?xml version="1.0" encoding="UTF-8" standalone="no"?>
<svg xmlns="http://www.w3.org/2000/svg" viewBox="0 0 100 100" width="32" height="32">
  <!-- Orange sun -->
  <circle cx="50" cy="35" r="25" fill="#F9A825"/>
  
  <!-- White stripes across the sun -->
  <line x1="25" y1="25" x2="75" y2="25" stroke="white" stroke-width="2"/>
  <line x1="25" y1="35" x2="75" y2="35" stroke="white" stroke-width="2"/>
  <line x1="25" y1="45" x2="75" y2="45" stroke="white" stroke-width="2"/>
  
  <!-- Grass and Animal silhouette -->
  <path d="M25 55 C30 53 35 55 40 52 C45 49 50 55 55 52 C60 49 65 55 70 52 C75 49 75 55 75 55 L75 65 L25 65 Z" fill="black"/>
  
  <!-- Animal silhouettes - matching logo -->
  <!-- Zebra -->
  <path d="M30 50 L30 58 L35 58 L35 50" fill="black"/>
  <!-- Giraffe -->
  <path d="M45 43 L45 58 L47 58 L50 53 L50 45" fill="black"/>
  <!-- Buffalo -->
  <path d="M60 50 L60 58 L65 58 L65 50" fill="black"/>
</svg>